<svg width="29" height="29" viewBox="0 0 29 29" fill="none" xmlns="http://www.w3.org/2000/svg">
<path d="M7.79114 9.62971C8.17098 6.21122 11.0605 3.625 14.5 3.625C17.9395 3.625 20.829 6.21122 21.2089 9.62971L21.5131 12.3681C21.557 12.7627 21.5789 12.96 21.6101 13.1539C21.7511 14.0288 22.0365 14.8741 22.4545 15.6555C22.5472 15.8287 22.6494 15.9989 22.8536 16.3394L23.5576 17.5127C24.3634 18.8556 24.7662 19.5271 24.479 20.0344C24.1918 20.5417 23.4087 20.5417 21.8426 20.5417H7.15738C5.59127 20.5417 4.80822 20.5417 4.52099 20.0344C4.23376 19.5271 4.63664 18.8556 5.4424 17.5127L6.14637 16.3394C6.35064 15.9989 6.45278 15.8287 6.54548 15.6555C6.96354 14.8741 7.24888 14.0288 7.38986 13.1539C7.42112 12.96 7.44304 12.7627 7.48688 12.3681L7.79114 9.62971Z" stroke="#33363F" stroke-width="2"/>
<path d="M9.66658 20.5417C9.66658 21.1764 9.7916 21.8049 10.0345 22.3913C10.2774 22.9777 10.6334 23.5105 11.0822 23.9593C11.5311 24.4082 12.0639 24.7642 12.6503 25.0071C13.2367 25.25 13.8652 25.375 14.4999 25.375C15.1346 25.375 15.7631 25.25 16.3496 25.0071C16.936 24.7642 17.4688 24.4082 17.9176 23.9593C18.3664 23.5105 18.7224 22.9777 18.9653 22.3913C19.2082 21.8049 19.3333 21.1764 19.3333 20.5417" stroke="#33363F" stroke-width="2" stroke-linecap="round"/>
</svg>
