<svg width="33" height="33" viewBox="0 0 33 33" fill="none" xmlns="http://www.w3.org/2000/svg">
<path fill-rule="evenodd" clip-rule="evenodd" d="M20.625 8.25C18.1821 8.25 15.9881 9.31272 14.4775 11H9.125C6.36358 11 4.125 13.2386 4.125 16V19.75C4.125 22.5114 6.36358 24.75 9.125 24.75H20.625C25.1813 24.75 28.875 21.0563 28.875 16.5C28.875 11.9437 25.1813 8.25 20.625 8.25Z" fill="#7E869E" fill-opacity="0.25"/>
<path d="M14.4775 11L14.9246 11.4002L14.7457 11.6H14.4775V11ZM9.125 11V10.4V10.4V11ZM4.125 16H3.525V16H4.125ZM4.125 19.75H3.525V19.75H4.125ZM9.125 24.75V25.35V25.35V24.75ZM20.625 8.25V8.85C18.36 8.85 16.3263 9.8345 14.9246 11.4002L14.4775 11L14.0305 10.5998C15.65 8.79093 18.0041 7.65 20.625 7.65V8.25ZM14.4775 11V11.6H9.125V11V10.4H14.4775V11ZM9.125 11V11.6C6.69495 11.6 4.725 13.5699 4.725 16H4.125H3.525C3.525 12.9072 6.03221 10.4 9.125 10.4V11ZM4.125 16H4.725V19.75H4.125H3.525V16H4.125ZM4.125 19.75H4.725C4.725 22.1801 6.69495 24.15 9.125 24.15V24.75V25.35C6.03221 25.35 3.525 22.8428 3.525 19.75H4.125ZM9.125 24.75V24.15H20.625V24.75V25.35H9.125V24.75ZM20.625 24.75V24.15C24.85 24.15 28.275 20.725 28.275 16.5H28.875H29.475C29.475 21.3877 25.5127 25.35 20.625 25.35V24.75ZM28.875 16.5H28.275C28.275 12.275 24.85 8.85 20.625 8.85V8.25V7.65C25.5127 7.65 29.475 11.6123 29.475 16.5H28.875Z" fill="#222222"/>
<path d="M22.4369 24.5486C23.9543 24.207 25.3442 23.4434 26.4463 22.3459C27.5484 21.2485 28.3179 19.8618 28.6659 18.3458C29.0139 16.8299 28.9262 15.2465 28.4131 13.7782C27.9 12.3099 26.9822 11.0166 25.7657 10.0474C24.5492 9.07827 23.0835 8.47272 21.5377 8.30065C19.9919 8.12857 18.429 8.39697 17.0291 9.0749C15.6293 9.75283 14.4496 10.8127 13.6261 12.1322C12.8026 13.4516 12.369 14.977 12.3751 16.5324" stroke="#222222" stroke-width="1.2"/>
</svg>
