<svg width="24" height="24" viewBox="0 0 24 24" fill="none" xmlns="http://www.w3.org/2000/svg">
<path fill-rule="evenodd" clip-rule="evenodd" d="M10.3652 4.06245C10.4189 4.02363 10.4882 4.02769 10.5381 4.07123C10.9239 4.408 12.5558 5.92383 13.7344 8.41889C13.7828 8.52113 13.9236 8.53774 13.9951 8.45014C14.6228 7.67843 15.2078 7.21415 15.418 7.05854C15.4671 7.02222 15.5319 7.02124 15.5811 7.05756C16.1034 7.4439 18.9722 9.75832 18.999 13.999V13.9999L19 14.0009C18.9999 14.0096 18.9991 14.0186 18.999 14.0273C18.9991 14.0376 19 14.0482 19 14.0585C19 14.0784 18.9973 14.0986 18.9961 14.1181C18.9812 14.997 18.8034 15.8659 18.4668 16.6787C18.115 17.5278 17.6001 18.3002 16.9502 18.9501C16.3002 19.6 15.5279 20.115 14.6787 20.4667C13.8951 20.7913 13.0595 20.9683 12.2129 20.9941C14.323 20.8834 16 19.1376 16 16.9999C16 16.7928 15.9845 16.5892 15.9541 16.3906C15.9538 16.3887 15.9544 16.3866 15.9541 16.3847C15.6187 14.1309 13.5447 12.2171 12.542 11.4101C12.2216 11.1523 11.7784 11.1523 11.458 11.4101C10.4552 12.2171 8.38131 14.1309 8.0459 16.3847C8.04563 16.3866 8.04617 16.3887 8.0459 16.3906C8.01554 16.5892 8 16.7928 8 16.9999C8.00004 19.1373 9.67646 20.8829 11.7861 20.9941C10.9399 20.9682 10.1046 20.7912 9.32129 20.4667C8.47212 20.115 7.69976 19.6 7.0498 18.9501C6.3999 18.3002 5.88498 17.5278 5.5332 16.6787C5.18147 15.8295 5.00005 14.9191 5 13.9999C5 8.16336 9.65909 4.57304 10.3652 4.06245Z" fill="#222222"/>
<path fill-rule="evenodd" clip-rule="evenodd" d="M11.458 11.4102C11.7784 11.1523 12.2216 11.1524 12.542 11.4102C13.5447 12.2171 15.6187 14.131 15.9541 16.3848C15.9544 16.3867 15.9538 16.3887 15.9541 16.3906C15.9845 16.5893 16 16.7929 16 17C16 19.2091 14.2091 21 12 21C9.79087 21 8.00002 19.2091 8 17C8 16.7929 8.01553 16.5893 8.0459 16.3906C8.04617 16.3887 8.04561 16.3867 8.0459 16.3848C8.38131 14.131 10.4552 12.2171 11.458 11.4102Z" fill="#7E869E" fill-opacity="0.25"/>
</svg>
