<svg width="31" height="31" viewBox="0 0 31 31" fill="none" xmlns="http://www.w3.org/2000/svg">
<path d="M6.45825 16.4812C6.45825 14.7274 6.45825 13.8506 6.81276 13.0798C7.16728 12.309 7.83306 11.7383 9.16462 10.597L10.4563 9.48982C12.8631 7.42687 14.0665 6.39539 15.4999 6.39539C16.9334 6.39539 18.1368 7.42686 20.5436 9.48982L21.8352 10.597C23.1668 11.7383 23.8326 12.309 24.1871 13.0798C24.5416 13.8506 24.5416 14.7274 24.5416 16.4812V21.9584C24.5416 24.394 24.5416 25.6118 23.7849 26.3684C23.0283 27.125 21.8105 27.125 19.3749 27.125H11.6249C9.18933 27.125 7.97153 27.125 7.21489 26.3684C6.45825 25.6118 6.45825 24.394 6.45825 21.9584V16.4812Z" stroke="#33363F" stroke-width="2"/>
<path d="M18.7291 27.125V20.375C18.7291 19.8227 18.2814 19.375 17.7291 19.375H13.2708C12.7185 19.375 12.2708 19.8227 12.2708 20.375V27.125" stroke="#33363F" stroke-width="2" stroke-linecap="round" stroke-linejoin="round"/>
</svg>
