<svg width="33" height="33" viewBox="0 0 33 33" fill="none" xmlns="http://www.w3.org/2000/svg">
<path fill-rule="evenodd" clip-rule="evenodd" d="M16.5 4.125C19.2506 4.125 21.6238 5.74031 22.7229 8.07406C23.1289 8.93612 23.9221 9.625 24.875 9.625C27.0841 9.625 28.875 11.4159 28.875 13.625V13.875C28.875 16.0841 27.0841 17.875 24.875 17.875H8.25C5.97183 17.875 4.125 16.0282 4.125 13.75C4.125 11.4718 5.97183 9.625 8.25 9.625C9.13015 9.625 9.86442 8.99068 10.2248 8.1877C11.2997 5.79291 13.705 4.125 16.5 4.125Z" fill="#7E869E" fill-opacity="0.25"/>
<path d="M28.875 13.625H29.475V13.625H28.875ZM28.875 13.875H29.475V13.875H28.875ZM22.7229 8.07406L22.1801 8.32972L22.7229 8.07406ZM16.5 4.125V4.725C19.0096 4.725 21.1762 6.19825 22.1801 8.32972L22.7229 8.07406L23.2657 7.81841C22.0713 5.28238 19.4915 3.525 16.5 3.525V4.125ZM24.875 9.625V10.225C26.7528 10.225 28.275 11.7472 28.275 13.625H28.875H29.475C29.475 11.0845 27.4155 9.025 24.875 9.025V9.625ZM28.875 13.625H28.275V13.875H28.875H29.475V13.625H28.875ZM28.875 13.875H28.275C28.275 15.7528 26.7528 17.275 24.875 17.275V17.875V18.475C27.4155 18.475 29.475 16.4155 29.475 13.875H28.875ZM24.875 17.875V17.275H8.25V17.875V18.475H24.875V17.875ZM8.25 17.875V17.275C6.3032 17.275 4.725 15.6968 4.725 13.75H4.125H3.525C3.525 16.3595 5.64045 18.475 8.25 18.475V17.875ZM4.125 13.75H4.725C4.725 11.8032 6.3032 10.225 8.25 10.225V9.625V9.025C5.64045 9.025 3.525 11.1405 3.525 13.75H4.125ZM10.2248 8.1877L10.7722 8.43339C11.7538 6.24629 13.9499 4.725 16.5 4.725V4.125V3.525C13.4601 3.525 10.8455 5.33954 9.67742 7.94201L10.2248 8.1877ZM8.25 9.625V10.225C9.43657 10.225 10.3474 9.37977 10.7722 8.43339L10.2248 8.1877L9.67742 7.94201C9.38138 8.6016 8.82374 9.025 8.25 9.025V9.625ZM22.7229 8.07406L22.1801 8.32972C22.6486 9.32446 23.6148 10.225 24.875 10.225V9.625V9.025C24.2294 9.025 23.6093 8.54777 23.2657 7.81841L22.7229 8.07406Z" fill="#222222"/>
<path d="M16.5 24.75V22" stroke="#222222" stroke-width="1.2" stroke-linecap="round"/>
<path d="M23.375 26.125V22" stroke="#222222" stroke-width="1.2" stroke-linecap="round"/>
<path d="M9.625 27.5V22" stroke="#222222" stroke-width="1.2" stroke-linecap="round"/>
</svg>
