<svg width="24" height="24" viewBox="0 0 24 24" fill="none" xmlns="http://www.w3.org/2000/svg">
<path d="M12 3C14.0325 3 15.7814 4.21286 16.5632 5.95428C16.8254 6.53849 17.3596 7 18 7C19.6569 7 21 8.34315 21 10C21 11.6569 19.6569 13 18 13H6C4.34315 13 3 11.6569 3 10C3 8.34315 4.34315 7 6 7C6.64037 7 7.1746 6.53849 7.43685 5.95428C8.21857 4.21286 9.96746 3 12 3Z" fill="#7E869E" fill-opacity="0.25"/>
<path d="M18 13V13.6V13.6V13ZM7.43685 5.95428L6.88947 5.70856L7.43685 5.95428ZM16.5632 5.95428L17.1105 5.70856L16.5632 5.95428ZM12 3V3.6C13.7876 3.6 15.3273 4.66622 16.0158 6.2L16.5632 5.95428L17.1105 5.70856C16.2356 3.75951 14.2774 2.4 12 2.4V3ZM18 7V7.6C19.3255 7.6 20.4 8.67452 20.4 10H21H21.6C21.6 8.01178 19.9882 6.4 18 6.4V7ZM21 10H20.4C20.4 11.3255 19.3255 12.4 18 12.4V13V13.6C19.9882 13.6 21.6 11.9882 21.6 10H21ZM18 13V12.4H6V13V13.6H18V13ZM6 13V12.4C4.67452 12.4 3.6 11.3255 3.6 10H3H2.4C2.4 11.9882 4.01177 13.6 6 13.6V13ZM3 10H3.6C3.6 8.67452 4.67452 7.6 6 7.6V7V6.4C4.01177 6.4 2.4 8.01178 2.4 10H3ZM7.43685 5.95428L7.98423 6.2C8.67274 4.66622 10.2124 3.6 12 3.6V3V2.4C9.72257 2.4 7.7644 3.75951 6.88947 5.70856L7.43685 5.95428ZM6 7V7.6C6.94679 7.6 7.65762 6.92758 7.98423 6.2L7.43685 5.95428L6.88947 5.70856C6.69158 6.1494 6.33396 6.4 6 6.4V7ZM16.5632 5.95428L16.0158 6.2C16.3424 6.92758 17.0532 7.6 18 7.6V7V6.4C17.666 6.4 17.3084 6.1494 17.1105 5.70856L16.5632 5.95428Z" fill="#222222"/>
<path d="M12 18V16" stroke="#222222" stroke-width="1.2" stroke-linecap="round"/>
<path d="M17 19V16" stroke="#222222" stroke-width="1.2" stroke-linecap="round"/>
<path d="M7 20V16" stroke="#222222" stroke-width="1.2" stroke-linecap="round"/>
</svg>
