<svg width="33" height="33" viewBox="0 0 33 33" fill="none" xmlns="http://www.w3.org/2000/svg">
<path d="M16.3789 13.8281L16.4736 13.8477L16.5654 13.8789C16.7679 13.963 16.8929 14.1209 16.9619 14.2627C17.0316 14.406 17.0581 14.5587 17.0723 14.6758C17.1007 14.9117 17.0996 15.2342 17.0996 15.5859V18.9248H18.5029C19.2588 18.9248 19.8954 18.9231 20.374 18.9941C20.8574 19.0659 21.3578 19.2361 21.6406 19.7305C21.9235 20.225 21.8161 20.7431 21.6328 21.1963C21.4514 21.6447 21.1272 22.1916 20.7441 22.8428L17.9482 27.5967C17.7698 27.9 17.6071 28.1782 17.4629 28.3672C17.3914 28.4609 17.2909 28.5788 17.1582 28.667C17.008 28.7667 16.7838 28.8474 16.5264 28.7773C16.2691 28.7072 16.117 28.5244 16.0381 28.3623C15.9684 28.219 15.9419 28.0663 15.9277 27.9492C15.8993 27.7133 15.9004 27.3908 15.9004 27.0391V23.7002H14.4971C13.7412 23.7002 13.1046 23.7019 12.626 23.6309C12.1426 23.5591 11.6422 23.3889 11.3594 22.8945C11.0765 22.4 11.1839 21.8819 11.3672 21.4287C11.5486 20.9803 11.8728 20.4334 12.2559 19.7822L15.0518 15.0283L15.0605 15.0137L15.0654 15.0059C15.2386 14.7114 15.3965 14.4421 15.5371 14.2578C15.6086 14.1641 15.7091 14.0462 15.8418 13.958C15.9733 13.8707 16.1614 13.7977 16.3789 13.8281Z" fill="#7E869E" fill-opacity="0.25" stroke="#222222" stroke-width="1.2"/>
<path fill-rule="evenodd" clip-rule="evenodd" d="M16.4995 3.52502C19.4908 3.52502 22.0706 5.28226 23.2651 7.81799C23.6086 8.54721 24.229 9.02483 24.8745 9.02502C27.4149 9.02502 29.4739 11.0843 29.4741 13.6246V13.8746C29.4741 15.9892 28.0473 17.7685 26.104 18.3063C26.0819 17.8095 26.0343 17.428 25.9341 17.1061C27.2932 16.6607 28.2749 15.3825 28.2749 13.8746V13.6246C28.2747 11.747 26.7521 10.2242 24.8745 10.2242C23.6146 10.2241 22.6477 9.3243 22.1792 8.32971C21.1752 6.1985 19.0089 4.72424 16.4995 4.72424C13.9496 4.7244 11.7536 6.24634 10.772 8.43323C10.3472 9.37958 9.43605 10.2242 8.24951 10.2242C6.30302 10.2245 4.72433 11.8031 4.72412 13.7496C4.72412 15.2843 5.70573 16.5897 7.07471 17.0739C6.96958 17.3962 6.91944 17.7781 6.896 18.277C4.94648 17.6949 3.5249 15.8885 3.5249 13.7496C3.52511 11.1404 5.64028 9.02524 8.24951 9.02502C8.82319 9.02502 9.38118 8.60149 9.67725 7.94202C10.8453 5.33975 13.4599 3.52518 16.4995 3.52502Z" fill="#222222"/>
</svg>
